<mxfile host="app.diagrams.net" modified="2024-05-15T04:27:23.216Z" agent="Mozilla/5.0 (Windows NT 10.0; Win64; x64) AppleWebKit/537.36 (KHTML, like Gecko) Chrome/123.0.0.0 Safari/537.36" etag="t5cTJVXORjR4tTyph6mS" version="24.4.0" type="device">
  <diagram name="Page-1" id="0ngDe8UuJhcvlgXcPP2B">
    <mxGraphModel dx="1072" dy="1107" grid="0" gridSize="10" guides="1" tooltips="1" connect="1" arrows="1" fold="1" page="0" pageScale="1" pageWidth="850" pageHeight="1100" math="0" shadow="0">
      <root>
        <mxCell id="0" />
        <mxCell id="1" parent="0" />
        <mxCell id="tWOFz7EWHhk4SvWGC_su-5" value="User" style="swimlane;html=1;fontStyle=0;childLayout=stackLayout;horizontal=1;startSize=26;fillColor=#e0e0e0;horizontalStack=0;resizeParent=1;resizeLast=0;collapsible=1;marginBottom=0;swimlaneFillColor=#ffffff;align=center;rounded=1;shadow=0;comic=0;labelBackgroundColor=none;strokeWidth=1;fontFamily=Verdana;fontSize=12" vertex="1" parent="1">
          <mxGeometry x="-132" y="45" width="160" height="110" as="geometry" />
        </mxCell>
        <mxCell id="tWOFz7EWHhk4SvWGC_su-6" value="id" style="text;html=1;strokeColor=none;fillColor=none;spacingLeft=4;spacingRight=4;whiteSpace=wrap;overflow=hidden;rotatable=0;points=[[0,0.5],[1,0.5]];portConstraint=eastwest;" vertex="1" parent="tWOFz7EWHhk4SvWGC_su-5">
          <mxGeometry y="26" width="160" height="26" as="geometry" />
        </mxCell>
        <mxCell id="tWOFz7EWHhk4SvWGC_su-7" value="name" style="text;html=1;strokeColor=none;fillColor=none;spacingLeft=4;spacingRight=4;whiteSpace=wrap;overflow=hidden;rotatable=0;points=[[0,0.5],[1,0.5]];portConstraint=eastwest;" vertex="1" parent="tWOFz7EWHhk4SvWGC_su-5">
          <mxGeometry y="52" width="160" height="26" as="geometry" />
        </mxCell>
        <mxCell id="tWOFz7EWHhk4SvWGC_su-8" value="region_id" style="text;html=1;strokeColor=none;fillColor=none;spacingLeft=4;spacingRight=4;whiteSpace=wrap;overflow=hidden;rotatable=0;points=[[0,0.5],[1,0.5]];portConstraint=eastwest;" vertex="1" parent="tWOFz7EWHhk4SvWGC_su-5">
          <mxGeometry y="78" width="160" height="26" as="geometry" />
        </mxCell>
        <mxCell id="tWOFz7EWHhk4SvWGC_su-9" value="Region" style="swimlane;html=1;fontStyle=0;childLayout=stackLayout;horizontal=1;startSize=26;fillColor=#e0e0e0;horizontalStack=0;resizeParent=1;resizeLast=0;collapsible=1;marginBottom=0;swimlaneFillColor=#ffffff;align=center;rounded=1;shadow=0;comic=0;labelBackgroundColor=none;strokeWidth=1;fontFamily=Verdana;fontSize=12" vertex="1" parent="1">
          <mxGeometry x="-132" y="-97" width="160" height="110" as="geometry" />
        </mxCell>
        <mxCell id="tWOFz7EWHhk4SvWGC_su-10" value="id" style="text;html=1;strokeColor=none;fillColor=none;spacingLeft=4;spacingRight=4;whiteSpace=wrap;overflow=hidden;rotatable=0;points=[[0,0.5],[1,0.5]];portConstraint=eastwest;" vertex="1" parent="tWOFz7EWHhk4SvWGC_su-9">
          <mxGeometry y="26" width="160" height="26" as="geometry" />
        </mxCell>
        <mxCell id="tWOFz7EWHhk4SvWGC_su-11" value="name" style="text;html=1;strokeColor=none;fillColor=none;spacingLeft=4;spacingRight=4;whiteSpace=wrap;overflow=hidden;rotatable=0;points=[[0,0.5],[1,0.5]];portConstraint=eastwest;" vertex="1" parent="tWOFz7EWHhk4SvWGC_su-9">
          <mxGeometry y="52" width="160" height="26" as="geometry" />
        </mxCell>
        <mxCell id="tWOFz7EWHhk4SvWGC_su-13" value="" style="curved=1;endArrow=classic;html=1;rounded=0;fontSize=12;startSize=8;endSize=8;exitX=1;exitY=0.5;exitDx=0;exitDy=0;entryX=1;entryY=0.5;entryDx=0;entryDy=0;" edge="1" parent="1" source="tWOFz7EWHhk4SvWGC_su-8" target="tWOFz7EWHhk4SvWGC_su-10">
          <mxGeometry width="50" height="50" relative="1" as="geometry">
            <mxPoint x="38" y="115" as="sourcePoint" />
            <mxPoint x="88" y="65" as="targetPoint" />
            <Array as="points">
              <mxPoint x="71" y="65" />
              <mxPoint x="69" y="-9" />
            </Array>
          </mxGeometry>
        </mxCell>
        <mxCell id="tWOFz7EWHhk4SvWGC_su-14" value="Doctors" style="swimlane;html=1;fontStyle=0;childLayout=stackLayout;horizontal=1;startSize=26;fillColor=#e0e0e0;horizontalStack=0;resizeParent=1;resizeLast=0;collapsible=1;marginBottom=0;swimlaneFillColor=#ffffff;align=center;rounded=1;shadow=0;comic=0;labelBackgroundColor=none;strokeWidth=1;fontFamily=Verdana;fontSize=12" vertex="1" parent="1">
          <mxGeometry x="90" y="50" width="160" height="110" as="geometry" />
        </mxCell>
        <mxCell id="tWOFz7EWHhk4SvWGC_su-15" value="id" style="text;html=1;strokeColor=none;fillColor=none;spacingLeft=4;spacingRight=4;whiteSpace=wrap;overflow=hidden;rotatable=0;points=[[0,0.5],[1,0.5]];portConstraint=eastwest;" vertex="1" parent="tWOFz7EWHhk4SvWGC_su-14">
          <mxGeometry y="26" width="160" height="26" as="geometry" />
        </mxCell>
        <mxCell id="tWOFz7EWHhk4SvWGC_su-16" value="name" style="text;html=1;strokeColor=none;fillColor=none;spacingLeft=4;spacingRight=4;whiteSpace=wrap;overflow=hidden;rotatable=0;points=[[0,0.5],[1,0.5]];portConstraint=eastwest;" vertex="1" parent="tWOFz7EWHhk4SvWGC_su-14">
          <mxGeometry y="52" width="160" height="26" as="geometry" />
        </mxCell>
        <mxCell id="tWOFz7EWHhk4SvWGC_su-17" value="paitent_num" style="text;html=1;strokeColor=none;fillColor=none;spacingLeft=4;spacingRight=4;whiteSpace=wrap;overflow=hidden;rotatable=0;points=[[0,0.5],[1,0.5]];portConstraint=eastwest;" vertex="1" parent="tWOFz7EWHhk4SvWGC_su-14">
          <mxGeometry y="78" width="160" height="26" as="geometry" />
        </mxCell>
        <mxCell id="tWOFz7EWHhk4SvWGC_su-18" value="Post" style="swimlane;html=1;fontStyle=0;childLayout=stackLayout;horizontal=1;startSize=26;fillColor=#e0e0e0;horizontalStack=0;resizeParent=1;resizeLast=0;collapsible=1;marginBottom=0;swimlaneFillColor=#ffffff;align=center;rounded=1;shadow=0;comic=0;labelBackgroundColor=none;strokeWidth=1;fontFamily=Verdana;fontSize=12" vertex="1" parent="1">
          <mxGeometry x="90" y="50" width="160" height="208" as="geometry" />
        </mxCell>
        <mxCell id="tWOFz7EWHhk4SvWGC_su-19" value="id" style="text;html=1;strokeColor=none;fillColor=none;spacingLeft=4;spacingRight=4;whiteSpace=wrap;overflow=hidden;rotatable=0;points=[[0,0.5],[1,0.5]];portConstraint=eastwest;" vertex="1" parent="tWOFz7EWHhk4SvWGC_su-18">
          <mxGeometry y="26" width="160" height="26" as="geometry" />
        </mxCell>
        <mxCell id="tWOFz7EWHhk4SvWGC_su-20" value="title" style="text;html=1;strokeColor=none;fillColor=none;spacingLeft=4;spacingRight=4;whiteSpace=wrap;overflow=hidden;rotatable=0;points=[[0,0.5],[1,0.5]];portConstraint=eastwest;" vertex="1" parent="tWOFz7EWHhk4SvWGC_su-18">
          <mxGeometry y="52" width="160" height="26" as="geometry" />
        </mxCell>
        <mxCell id="tWOFz7EWHhk4SvWGC_su-21" value="description" style="text;html=1;strokeColor=none;fillColor=none;spacingLeft=4;spacingRight=4;whiteSpace=wrap;overflow=hidden;rotatable=0;points=[[0,0.5],[1,0.5]];portConstraint=eastwest;" vertex="1" parent="tWOFz7EWHhk4SvWGC_su-18">
          <mxGeometry y="78" width="160" height="26" as="geometry" />
        </mxCell>
        <mxCell id="tWOFz7EWHhk4SvWGC_su-23" value="user_id" style="text;html=1;strokeColor=none;fillColor=none;spacingLeft=4;spacingRight=4;whiteSpace=wrap;overflow=hidden;rotatable=0;points=[[0,0.5],[1,0.5]];portConstraint=eastwest;" vertex="1" parent="tWOFz7EWHhk4SvWGC_su-18">
          <mxGeometry y="104" width="160" height="26" as="geometry" />
        </mxCell>
        <mxCell id="tWOFz7EWHhk4SvWGC_su-24" value="category_id" style="text;html=1;strokeColor=none;fillColor=none;spacingLeft=4;spacingRight=4;whiteSpace=wrap;overflow=hidden;rotatable=0;points=[[0,0.5],[1,0.5]];portConstraint=eastwest;" vertex="1" parent="tWOFz7EWHhk4SvWGC_su-18">
          <mxGeometry y="130" width="160" height="26" as="geometry" />
        </mxCell>
        <mxCell id="tWOFz7EWHhk4SvWGC_su-32" value="region_id" style="text;html=1;strokeColor=none;fillColor=none;spacingLeft=4;spacingRight=4;whiteSpace=wrap;overflow=hidden;rotatable=0;points=[[0,0.5],[1,0.5]];portConstraint=eastwest;" vertex="1" parent="tWOFz7EWHhk4SvWGC_su-18">
          <mxGeometry y="156" width="160" height="26" as="geometry" />
        </mxCell>
        <mxCell id="tWOFz7EWHhk4SvWGC_su-31" value="price" style="text;html=1;strokeColor=none;fillColor=none;spacingLeft=4;spacingRight=4;whiteSpace=wrap;overflow=hidden;rotatable=0;points=[[0,0.5],[1,0.5]];portConstraint=eastwest;" vertex="1" parent="tWOFz7EWHhk4SvWGC_su-18">
          <mxGeometry y="182" width="160" height="26" as="geometry" />
        </mxCell>
        <mxCell id="tWOFz7EWHhk4SvWGC_su-25" value="" style="curved=1;endArrow=classic;html=1;rounded=0;fontSize=12;startSize=8;endSize=8;exitX=1;exitY=0.5;exitDx=0;exitDy=0;entryX=0;entryY=0.5;entryDx=0;entryDy=0;" edge="1" parent="1" source="tWOFz7EWHhk4SvWGC_su-6" target="tWOFz7EWHhk4SvWGC_su-23">
          <mxGeometry width="50" height="50" relative="1" as="geometry">
            <mxPoint x="133" y="90" as="sourcePoint" />
            <mxPoint x="183" y="40" as="targetPoint" />
            <Array as="points">
              <mxPoint x="35" y="115" />
              <mxPoint x="71" y="97" />
            </Array>
          </mxGeometry>
        </mxCell>
        <mxCell id="tWOFz7EWHhk4SvWGC_su-26" value="Categories" style="swimlane;html=1;fontStyle=0;childLayout=stackLayout;horizontal=1;startSize=26;fillColor=#e0e0e0;horizontalStack=0;resizeParent=1;resizeLast=0;collapsible=1;marginBottom=0;swimlaneFillColor=#ffffff;align=center;rounded=1;shadow=0;comic=0;labelBackgroundColor=none;strokeWidth=1;fontFamily=Verdana;fontSize=12" vertex="1" parent="1">
          <mxGeometry x="307" y="-54" width="160" height="110" as="geometry" />
        </mxCell>
        <mxCell id="tWOFz7EWHhk4SvWGC_su-27" value="id" style="text;html=1;strokeColor=none;fillColor=none;spacingLeft=4;spacingRight=4;whiteSpace=wrap;overflow=hidden;rotatable=0;points=[[0,0.5],[1,0.5]];portConstraint=eastwest;" vertex="1" parent="tWOFz7EWHhk4SvWGC_su-26">
          <mxGeometry y="26" width="160" height="26" as="geometry" />
        </mxCell>
        <mxCell id="tWOFz7EWHhk4SvWGC_su-28" value="name" style="text;html=1;strokeColor=none;fillColor=none;spacingLeft=4;spacingRight=4;whiteSpace=wrap;overflow=hidden;rotatable=0;points=[[0,0.5],[1,0.5]];portConstraint=eastwest;" vertex="1" parent="tWOFz7EWHhk4SvWGC_su-26">
          <mxGeometry y="52" width="160" height="26" as="geometry" />
        </mxCell>
        <mxCell id="tWOFz7EWHhk4SvWGC_su-29" value="post_id" style="text;html=1;strokeColor=none;fillColor=none;spacingLeft=4;spacingRight=4;whiteSpace=wrap;overflow=hidden;rotatable=0;points=[[0,0.5],[1,0.5]];portConstraint=eastwest;" vertex="1" parent="tWOFz7EWHhk4SvWGC_su-26">
          <mxGeometry y="78" width="160" height="26" as="geometry" />
        </mxCell>
        <mxCell id="tWOFz7EWHhk4SvWGC_su-34" value="" style="curved=1;endArrow=classic;html=1;rounded=0;fontSize=12;startSize=8;endSize=8;entryX=0;entryY=0.5;entryDx=0;entryDy=0;exitX=1.032;exitY=0.534;exitDx=0;exitDy=0;exitPerimeter=0;" edge="1" parent="1" source="tWOFz7EWHhk4SvWGC_su-24" target="tWOFz7EWHhk4SvWGC_su-27">
          <mxGeometry width="50" height="50" relative="1" as="geometry">
            <mxPoint x="257" y="162" as="sourcePoint" />
            <mxPoint x="307" y="112" as="targetPoint" />
            <Array as="points">
              <mxPoint x="307" y="162" />
              <mxPoint x="257" y="112" />
            </Array>
          </mxGeometry>
        </mxCell>
        <mxCell id="tWOFz7EWHhk4SvWGC_su-35" value="" style="curved=1;endArrow=classic;html=1;rounded=0;fontSize=12;startSize=8;endSize=8;exitX=0;exitY=0.5;exitDx=0;exitDy=0;" edge="1" parent="1" source="tWOFz7EWHhk4SvWGC_su-32">
          <mxGeometry width="50" height="50" relative="1" as="geometry">
            <mxPoint x="79" y="147" as="sourcePoint" />
            <mxPoint x="31" y="-52" as="targetPoint" />
            <Array as="points">
              <mxPoint x="45" y="140" />
              <mxPoint x="104" y="-7" />
            </Array>
          </mxGeometry>
        </mxCell>
      </root>
    </mxGraphModel>
  </diagram>
</mxfile>
